<?xml version="1.0" encoding="UTF-8" standalone="no"?>
<!-- Save this as pkgdown/images/placeholder.svg -->
<svg width="600" height="320" viewBox="0 0 600 320" xmlns="http://www.w3.org/2000/svg">
  <!-- Background -->
  <rect width="600" height="320" fill="#f5f5f5" />
  
  <!-- Top and Bottom Bars -->
  <rect x="0" y="0" width="600" height="10" fill="C2722DE" />
  <rect x="0" y="310" width="600" height="10" fill="C2722DE" />
  
  <!-- Document Icon -->
  <g transform="translate(250, 110)">
    <rect x="0" y="0" width="100" height="120" fill="white" stroke="C2722DE" stroke-width="2" rx="5" />
    <rect x="15" y="20" width="70" height="10" fill="C2722DE" opacity="0.7" rx="2" />
    <rect x="15" y="40" width="70" height="10" fill="C2722DE" opacity="0.5" rx="2" />
    <rect x="15" y="60" width="50" height="10" fill="C2722DE" opacity="0.3" rx="2" />
    <rect x="15" y="80" width="30" height="10" fill="C2722DE" opacity="0.2" rx="2" />
  </g>
  
  <!-- Decorative Elements -->
  <circle cx="300" cy="260" r="20" fill="C2722DE" opacity="0.8" />
  <circle cx="340" cy="260" r="15" fill="C2722DE" opacity="0.6" />
  <circle cx="370" cy="260" r="10" fill="C2722DE" opacity="0.4" />
  <circle cx="390" cy="260" r="5" fill="C2722DE" opacity="0.2" />
  
  <circle cx="260" cy="260" r="15" fill="C2722DE" opacity="0.6" />
  <circle cx="230" cy="260" r="10" fill="C2722DE" opacity="0.4" />
  <circle cx="210" cy="260" r="5" fill="C2722DE" opacity="0.2" />
</svg>